<svg width="28" height="29" viewBox="0 0 28 29" fill="none" xmlns="http://www.w3.org/2000/svg">
<path d="M14.1173 22.263L14.0007 22.3797L13.8723 22.263C8.33065 17.2347 4.66732 13.9097 4.66732 10.538C4.66732 8.20467 6.41732 6.45467 8.75065 6.45467C10.5473 6.45467 12.2973 7.62134 12.9157 9.208H15.0857C15.704 7.62134 17.454 6.45467 19.2507 6.45467C21.584 6.45467 23.334 8.20467 23.334 10.538C23.334 13.9097 19.6707 17.2347 14.1173 22.263ZM19.2507 4.12134C17.2207 4.12134 15.2723 5.06634 14.0007 6.548C12.729 5.06634 10.7807 4.12134 8.75065 4.12134C5.15732 4.12134 2.33398 6.933 2.33398 10.538C2.33398 14.9363 6.30065 18.5413 12.309 23.9897L14.0007 25.5297L15.6923 23.9897C21.7007 18.5413 25.6673 14.9363 25.6673 10.538C25.6673 6.933 22.844 4.12134 19.2507 4.12134Z" fill="#80CA7B"/>
</svg>
