<svg width="252" height="56" viewBox="0 0 252 56" fill="none" xmlns="http://www.w3.org/2000/svg">
<path d="M7.93089 34.4206C5.24096 34.4793 2.70257 35.3518 1.76962 35.7806C1.12582 35.9241 0.943955 38.9991 1.32128 40.292C1.62314 41.3264 2.06751 41.4858 2.25196 41.4362C9.99889 39.3531 19.7415 40.8672 23.6445 41.8846C33.331 43.837 42.2975 41.0818 45.57 39.4602C46.1659 39.205 46.4504 36.85 46.5182 35.7044C46.7232 33.4657 45.8982 33.3988 45.4601 33.6452C37.0783 37.8689 27.6522 37.0391 23.9868 36.0963C24.5104 35.8368 25.7769 33.9634 26.3447 33.0592C27.081 31.8623 27.8818 30.6317 28.3584 28.8862C28.8218 27.1892 29.793 24.8831 30.1248 24.3884C34.4381 18.9802 38.3713 18.4625 39.7988 18.8797C39.4611 23.3614 35.5243 26.1901 33.5981 27.0443C32.6776 27.2621 30.7471 28.2915 30.3888 30.6664C30.0305 33.0412 31.1611 33.465 31.7712 33.3801C44.3149 31.2177 46.9118 19.3307 46.6423 13.6574C36.5816 10.6664 29.908 14.7552 27.8288 17.1734C25.5773 3.68061 11.65 0.182552 4.96781 0.120125C4.02351 2.78703 2.32919 9.43926 3.1064 14.7129C3.8836 19.9866 6.47477 23.746 7.67321 24.9665C8.6128 25.9599 11.0942 28.2001 13.5028 29.2139C15.9115 30.2276 16.8897 30.2613 17.0777 30.1514C17.6027 29.9707 18.7752 29.0719 19.2654 26.9227C19.7555 24.7735 18.6793 24.0443 18.0799 23.9483C16.6328 23.8627 13.1687 22.5869 10.8888 18.1682C8.60889 13.7496 9.04741 8.89271 9.55166 7.01661C15.3314 7.50365 19.006 11.8717 20.1208 13.9948C21.5668 17.1661 24.0128 24.6078 22.2281 29.0038C20.4434 33.3999 14.9146 34.5009 12.3733 34.5018C12.0133 34.4503 10.6208 34.3619 7.93089 34.4206Z" fill="#007A4F"/>
<path d="M0.877951 47.0301C1.40142 46.5539 6.42492 45.6132 10.0595 45.4532C15.6053 45.209 19.2875 46.7762 24.1166 47.5644C28.9457 48.3526 31.5345 48.5301 36.1865 47.7667C40.0235 47.1371 44.6639 44.588 45.6674 44.7259C46.6709 44.8638 46.4145 49.4092 45.9028 50.1568C45.3911 50.9045 40.2736 52.6756 36.4298 53.3787C31.1281 54.3485 28.0005 53.744 22.6322 53.0699C17.8123 52.4646 15.1712 51.234 10.3145 51.3367C6.68912 51.4133 1.40452 52.9018 1.1212 52.642C-0.495686 51.1595 0.354481 47.5062 0.877951 47.0301Z" fill="#80CA7B"/>
<path d="M68.7816 15.2676H78.7231C79.9366 15.2676 80.9751 15.5943 81.8386 16.2477C82.7254 16.8778 83.4021 17.7063 83.8689 18.7331C84.3356 19.7599 84.569 20.8451 84.569 21.9886C84.569 23.1321 84.3239 24.2639 83.8339 25.3841C83.3671 26.5043 82.7137 27.5311 81.8736 28.4646C81.0334 29.3747 80.065 30.1098 78.9681 30.6699C77.8713 31.2067 76.6928 31.475 75.4326 31.475H69.2717L67.4514 40.1213H63.4958L68.7816 15.2676ZM75.9577 28.0095C76.5411 28.0095 77.1129 27.8578 77.6729 27.5544C78.233 27.2277 78.7231 26.8076 79.1432 26.2942C79.5632 25.7575 79.8899 25.1507 80.1233 24.474C80.38 23.7972 80.5084 23.0737 80.5084 22.3036C80.5084 21.5802 80.38 20.9618 80.1233 20.4484C79.8899 19.9116 79.5632 19.4915 79.1432 19.1882C78.7231 18.8848 78.2447 18.7331 77.7079 18.7331H72.0021L70.0068 28.0095H75.9577ZM92.5007 40.3664C90.7271 40.3664 89.0468 40.0863 87.4599 39.5262C85.8964 38.9428 84.5428 38.1027 83.3993 37.0059L85.9547 33.6454C86.1414 33.9487 86.4564 34.2871 86.8998 34.6605C87.3432 35.0106 87.8917 35.3489 88.5451 35.6757C89.1985 36.0024 89.922 36.2824 90.7154 36.5158C91.5322 36.7258 92.3957 36.8308 93.3058 36.8308C94.4026 36.8308 95.3361 36.6791 96.1062 36.3758C96.8764 36.0724 97.4598 35.6407 97.8565 35.0806C98.2766 34.5205 98.4866 33.8437 98.4866 33.0503C98.4866 32.3735 98.2532 31.8134 97.7865 31.37C97.3198 30.9266 96.6663 30.5532 95.8262 30.2498C95.0094 29.9465 94.0409 29.6314 92.9208 29.3047C91.6839 28.9313 90.6337 28.5229 89.7703 28.0795C88.9302 27.6128 88.2884 27.0527 87.845 26.3993C87.4249 25.7458 87.2149 24.9407 87.2149 23.9839C87.2149 22.5837 87.4833 21.3352 88.02 20.2383C88.5801 19.1415 89.3385 18.208 90.2954 17.4379C91.2755 16.6678 92.384 16.0844 93.6209 15.6876C94.8811 15.2909 96.1996 15.0925 97.5765 15.0925C98.65 15.0925 99.6418 15.2209 100.552 15.4776C101.485 15.711 102.326 16.0377 103.072 16.4577C103.819 16.8778 104.473 17.3562 105.033 17.893L102.582 21.1135C102.442 20.8567 102.185 20.5884 101.812 20.3083C101.462 20.0049 101.019 19.7249 100.482 19.4682C99.9685 19.2115 99.3851 19.0015 98.7316 18.8381C98.1015 18.6747 97.4364 18.5931 96.7363 18.5931C95.5695 18.5931 94.601 18.7681 93.8309 19.1181C93.0608 19.4682 92.4774 19.9466 92.0806 20.5534C91.7072 21.1601 91.5205 21.8602 91.5205 22.6537C91.5205 23.2604 91.7072 23.7622 92.0806 24.1589C92.4774 24.5556 93.0374 24.894 93.7609 25.1741C94.5077 25.4308 95.4178 25.7108 96.4913 26.0142C97.7982 26.3642 98.9183 26.7726 99.8518 27.2394C100.809 27.7061 101.555 28.3129 102.092 29.0597C102.629 29.7831 102.897 30.7166 102.897 31.8601C102.897 33.3303 102.617 34.6138 102.057 35.7107C101.497 36.7842 100.727 37.671 99.7468 38.3711C98.7666 39.0478 97.6465 39.5496 96.3863 39.8763C95.1494 40.203 93.8542 40.3664 92.5007 40.3664ZM110.453 15.2676H120.394C121.608 15.2676 122.646 15.5943 123.51 16.2477C124.397 16.8778 125.074 17.7063 125.54 18.7331C126.007 19.7599 126.24 20.8451 126.24 21.9886C126.24 23.1321 125.995 24.2639 125.505 25.3841C125.038 26.5043 124.385 27.5311 123.545 28.4646C122.705 29.3747 121.736 30.1098 120.639 30.6699C119.543 31.2067 118.364 31.475 117.104 31.475H110.943L109.123 40.1213H105.167L110.453 15.2676ZM117.629 28.0095C118.212 28.0095 118.784 27.8578 119.344 27.5544C119.904 27.2277 120.394 26.8076 120.815 26.2942C121.235 25.7575 121.561 25.1507 121.795 24.474C122.051 23.7972 122.18 23.0737 122.18 22.3036C122.18 21.5802 122.051 20.9618 121.795 20.4484C121.561 19.9116 121.235 19.4915 120.815 19.1882C120.394 18.8848 119.916 18.7331 119.379 18.7331H113.673L111.678 28.0095H117.629ZM136.027 40.2964C134.09 40.2964 132.527 39.923 131.337 39.1762C130.146 38.4294 129.283 37.4259 128.746 36.1657C128.233 34.9055 127.976 33.5053 127.976 31.9651C127.976 31.2883 128.011 30.6232 128.081 29.9698C128.174 29.293 128.303 28.5929 128.466 27.8695L131.127 15.2676H135.082L132.387 27.8695C132.27 28.4762 132.177 29.0597 132.107 29.6197C132.037 30.1798 132.002 30.7282 132.002 31.265C132.002 32.3152 132.153 33.2486 132.457 34.0654C132.76 34.8822 133.262 35.5356 133.962 36.0257C134.662 36.5158 135.596 36.7608 136.762 36.7608C137.976 36.7608 139.038 36.5158 139.948 36.0257C140.881 35.5123 141.675 34.8355 142.328 33.9954C142.982 33.1319 143.518 32.1751 143.939 31.125C144.382 30.0748 144.72 28.9896 144.954 27.8695L147.614 15.2676H151.57L148.874 27.8695C148.524 29.5731 147.987 31.1833 147.264 32.7002C146.564 34.1938 145.689 35.5123 144.639 36.6558C143.588 37.776 142.34 38.6628 140.893 39.3162C139.47 39.9696 137.848 40.2964 136.027 40.2964ZM150.516 40.1213L151.461 35.6407H154.681L153.701 40.1213H150.516ZM163.85 15.2676H179.602L178.867 18.7331H167.07L165.495 26.1542H175.366L174.666 29.4097H164.795L162.52 40.1213H158.564L163.85 15.2676ZM188.455 15.2676H191.921L195.911 40.1213H191.781L190.801 33.3653H181.874L178.059 40.1213H173.928L188.455 15.2676ZM190.661 30.4599L189.26 19.7832L183.169 30.4599H190.661ZM198.936 40.1213L204.222 15.2676H214.549C215.762 15.2676 216.801 15.5943 217.664 16.2477C218.551 16.8778 219.216 17.7063 219.659 18.7331C220.126 19.7599 220.36 20.8451 220.36 21.9886C220.36 22.9221 220.196 23.8439 219.869 24.754C219.566 25.6641 219.123 26.5159 218.539 27.3094C217.979 28.1028 217.314 28.7913 216.544 29.3747C215.797 29.9581 214.98 30.3899 214.094 30.6699L217.594 40.1213H213.148L209.928 31.475H204.712L202.892 40.1213H198.936ZM211.783 28.0095C212.367 28.0095 212.927 27.8578 213.463 27.5544C214 27.2277 214.479 26.796 214.899 26.2592C215.342 25.7225 215.68 25.1274 215.914 24.474C216.171 23.7972 216.299 23.1088 216.299 22.4086C216.299 21.7085 216.182 21.0901 215.949 20.5534C215.715 19.9933 215.389 19.5499 214.969 19.2232C214.572 18.8964 214.105 18.7331 213.568 18.7331H207.443L205.447 28.0095H211.783ZM226.511 15.2676H230.711L235.122 30.4599L246.009 15.2676H250.174L244.888 40.1213H240.933L244.748 22.2336L235.087 35.7807H232.917L228.996 22.2336L225.18 40.1213H221.225L226.511 15.2676Z" fill="#007A4F"/>
</svg>
