<svg width="28" height="29" viewBox="0 0 28 29" fill="none" xmlns="http://www.w3.org/2000/svg">
<path d="M8.16602 26.288C7.52435 26.288 6.97485 26.0594 6.51752 25.602C6.06018 25.1447 5.8319 24.5956 5.83268 23.9547C5.83268 23.313 6.06135 22.7635 6.51868 22.3062C6.97602 21.8489 7.52513 21.6206 8.16602 21.6214C8.80768 21.6214 9.35718 21.85 9.81452 22.3074C10.2718 22.7647 10.5001 23.3138 10.4993 23.9547C10.4993 24.5964 10.2707 25.1459 9.81335 25.6032C9.35602 26.0605 8.8069 26.2888 8.16602 26.288ZM19.8327 26.288C19.191 26.288 18.6415 26.0594 18.1842 25.602C17.7268 25.1447 17.4986 24.5956 17.4993 23.9547C17.4993 23.313 17.728 22.7635 18.1853 22.3062C18.6427 21.8489 19.1918 21.6206 19.8327 21.6214C20.4743 21.6214 21.0238 21.85 21.4812 22.3074C21.9385 22.7647 22.1668 23.3138 22.166 23.9547C22.166 24.5964 21.9373 25.1459 21.48 25.6032C21.0227 26.0605 20.4736 26.2888 19.8327 26.288ZM7.17435 7.62138L9.97435 13.4547H18.141L21.3493 7.62138H7.17435ZM6.06602 5.28805H23.2743C23.7216 5.28805 24.0618 5.48755 24.2952 5.88655C24.5285 6.28555 24.5382 6.68882 24.3243 7.09638L20.1827 14.563C19.9688 14.9519 19.6818 15.2533 19.3217 15.4672C18.9616 15.6811 18.568 15.788 18.141 15.788H9.44935L8.16602 18.1214H22.166V20.4547H8.16602C7.29102 20.4547 6.6299 20.0705 6.18268 19.302C5.73546 18.5336 5.71602 17.7706 6.12435 17.013L7.69935 14.1547L3.49935 5.28805H1.16602V2.95471H4.95768L6.06602 5.28805Z" fill="white"/>
</svg>
