<svg width="19" height="19" viewBox="0 0 19 19" fill="none" xmlns="http://www.w3.org/2000/svg">
<path d="M3.16732 15.8334C2.7319 15.8334 2.35903 15.6783 2.04869 15.3679C1.73836 15.0576 1.58346 14.685 1.58399 14.2501V4.75008C1.58399 4.31467 1.73915 3.94179 2.04949 3.63146C2.35982 3.32112 2.73243 3.16622 3.16732 3.16675H15.834C16.2694 3.16675 16.6423 3.32192 16.9526 3.63225C17.2629 3.94258 17.4178 4.31519 17.4173 4.75008V14.2501C17.4173 14.6855 17.2622 15.0584 16.9518 15.3687C16.6415 15.679 16.2689 15.8339 15.834 15.8334H3.16732ZM9.50065 10.2917L3.16732 6.33342V14.2501H15.834V6.33342L9.50065 10.2917ZM9.50065 8.70842L15.834 4.75008H3.16732L9.50065 8.70842ZM3.16732 6.33342V4.75008V14.2501V6.33342Z" fill="#FBA905"/>
</svg>
