<svg width="19" height="19" viewBox="0 0 19 19" fill="none" xmlns="http://www.w3.org/2000/svg">
<path d="M5.24083 8.54208L6.9825 6.80042C7.20417 6.57875 7.2675 6.27 7.18042 5.99292C6.8875 5.10625 6.72917 4.15625 6.72917 3.16667C6.72917 2.73125 6.37292 2.375 5.9375 2.375H3.16667C2.73125 2.375 2.375 2.73125 2.375 3.16667C2.375 10.6004 8.39958 16.625 15.8333 16.625C16.2688 16.625 16.625 16.2688 16.625 15.8333V13.0704C16.625 12.635 16.2688 12.2788 15.8333 12.2788C14.8517 12.2788 13.8937 12.1204 13.0071 11.8275C12.73 11.7325 12.4133 11.8038 12.1996 12.0175L10.4579 13.7592C8.2175 12.6112 6.38083 10.7825 5.24083 8.54208Z" fill="#007A4F"/>
</svg>
